<svg xmlns="http://www.w3.org/2000/svg" viewBox="0 0 400 400" width="400" height="400">
<defs>
  <radialGradient id="ska1_0" cx="40%" cy="35%" r="65%"><stop offset="0%" stop-color="#D4A574"/><stop offset="55%" stop-color="#C08A5C"/><stop offset="100%" stop-color="#A57040"/></radialGradient>
  <filter id="fxa1_0"><feTurbulence type="fractalNoise" baseFrequency="0.65" numOctaves="3" result="n"/><feColorMatrix type="saturate" values="0.12" in="n" result="g"/><feBlend in="SourceGraphic" in2="g" mode="overlay"/></filter>
  <radialGradient id="hla1_0" cx="30%" cy="25%" r="45%"><stop offset="0%" stop-color="#FFF" stop-opacity="0.18"/><stop offset="100%" stop-color="#FFF" stop-opacity="0"/></radialGradient>
  <radialGradient id="sha1_0" cx="72%" cy="78%" r="50%"><stop offset="0%" stop-color="#000" stop-opacity="0.2"/><stop offset="100%" stop-color="#000" stop-opacity="0"/></radialGradient>
</defs>
<rect width="400" height="400" fill="url(#ska1_0)" filter="url(#fxa1_0)"/>
<rect width="400" height="400" fill="#CC3030" opacity="0.180"/>
<circle cx="32.7" cy="212.8" r="9.9" fill="#8B2020" opacity="0.82" />
<circle cx="356.1" cy="45.2" r="13.2" fill="#6B3030" opacity="0.79" />
<circle cx="200.7" cy="171.6" r="14.5" fill="#8B2020" opacity="0.71" />
<circle cx="268.1" cy="80.8" r="11.1" fill="#8B2020" opacity="0.84" />
<circle cx="195.2" cy="292.7" r="14.7" fill="#8B2020" opacity="0.61" />
<circle cx="345.8" cy="358.1" r="13.9" fill="#8B2020" opacity="0.62" />
<circle cx="139.1" cy="97.3" r="7.9" fill="#8B2020" opacity="0.58" />
<circle cx="109.6" cy="247.1" r="7.3" fill="#6B3030" opacity="0.67" />
<circle cx="43.2" cy="217.1" r="10.6" fill="#8B2020" opacity="0.73" />
<circle cx="263.2" cy="245.8" r="11.2" fill="#8B2020" opacity="0.69" />
<circle cx="198.2" cy="278.8" r="12.1" fill="#8B2020" opacity="0.64" />
<circle cx="202.4" cy="205.9" r="10.5" fill="#6B3030" opacity="0.75" />
<circle cx="252.1" cy="207.8" r="5.8" fill="#6B3030" opacity="0.77" />
<circle cx="362.1" cy="79.1" r="11.5" fill="#8B2020" opacity="0.81" />
<circle cx="270.4" cy="78.3" r="3.1" fill="#8B2020" opacity="0.81" />
<rect width="400" height="400" fill="url(#hla1_0)"/>
<rect width="400" height="400" fill="url(#sha1_0)"/>
</svg>