<svg xmlns="http://www.w3.org/2000/svg" viewBox="0 0 400 400" width="400" height="400">
<defs>
  <radialGradient id="ska2_0" cx="40%" cy="35%" r="65%"><stop offset="0%" stop-color="#E8C49A"/><stop offset="55%" stop-color="#D4A874"/><stop offset="100%" stop-color="#B88C55"/></radialGradient>
  <filter id="fxa2_0"><feTurbulence type="fractalNoise" baseFrequency="0.65" numOctaves="3" result="n"/><feColorMatrix type="saturate" values="0.12" in="n" result="g"/><feBlend in="SourceGraphic" in2="g" mode="overlay"/></filter>
  <radialGradient id="hla2_0" cx="30%" cy="25%" r="45%"><stop offset="0%" stop-color="#FFF" stop-opacity="0.18"/><stop offset="100%" stop-color="#FFF" stop-opacity="0"/></radialGradient>
  <radialGradient id="sha2_0" cx="72%" cy="78%" r="50%"><stop offset="0%" stop-color="#000" stop-opacity="0.2"/><stop offset="100%" stop-color="#000" stop-opacity="0"/></radialGradient>
</defs>
<rect width="400" height="400" fill="url(#ska2_0)" filter="url(#fxa2_0)"/>
<rect width="400" height="400" fill="#CC3030" opacity="0.180"/>
<circle cx="35.3" cy="55.7" r="4.7" fill="#8B2020" opacity="0.74" />
<circle cx="342.2" cy="60.3" r="11.5" fill="#8B2020" opacity="0.69" />
<circle cx="31.4" cy="313.1" r="14.1" fill="#6B3030" opacity="0.87" />
<circle cx="166.1" cy="131.6" r="7.2" fill="#8B2020" opacity="0.79" />
<circle cx="360.5" cy="215.4" r="14.4" fill="#8B2020" opacity="0.67" />
<circle cx="321.6" cy="346.1" r="12.9" fill="#8B2020" opacity="0.68" />
<circle cx="248.2" cy="164.7" r="13.8" fill="#8B2020" opacity="0.61" />
<circle cx="189.3" cy="124.2" r="12.7" fill="#6B3030" opacity="0.79" />
<circle cx="56.4" cy="64.2" r="6.2" fill="#8B2020" opacity="0.56" />
<circle cx="156.4" cy="121.6" r="7.4" fill="#8B2020" opacity="0.84" />
<circle cx="366.4" cy="187.6" r="9.1" fill="#8B2020" opacity="0.74" />
<circle cx="34.9" cy="41.8" r="6.1" fill="#8B2020" opacity="0.60" />
<circle cx="134.1" cy="45.6" r="9.6" fill="#6B3030" opacity="0.65" />
<circle cx="354.1" cy="128.3" r="8.1" fill="#8B2020" opacity="0.72" />
<circle cx="170.8" cy="126.7" r="4.1" fill="#8B2020" opacity="0.72" />
<circle cx="333.2" cy="356.4" r="4.2" fill="#6B3030" opacity="0.69" />
<rect width="400" height="400" fill="url(#hla2_0)"/>
<rect width="400" height="400" fill="url(#sha2_0)"/>
</svg>