<svg xmlns="http://www.w3.org/2000/svg" viewBox="0 0 400 400" width="400" height="400">
<defs>
  <radialGradient id="ska3_0" cx="40%" cy="35%" r="65%"><stop offset="0%" stop-color="#C8896A"/><stop offset="55%" stop-color="#B5714E"/><stop offset="100%" stop-color="#9B5B35"/></radialGradient>
  <filter id="fxa3_0"><feTurbulence type="fractalNoise" baseFrequency="0.65" numOctaves="3" result="n"/><feColorMatrix type="saturate" values="0.12" in="n" result="g"/><feBlend in="SourceGraphic" in2="g" mode="overlay"/></filter>
  <radialGradient id="hla3_0" cx="30%" cy="25%" r="45%"><stop offset="0%" stop-color="#FFF" stop-opacity="0.18"/><stop offset="100%" stop-color="#FFF" stop-opacity="0"/></radialGradient>
  <radialGradient id="sha3_0" cx="72%" cy="78%" r="50%"><stop offset="0%" stop-color="#000" stop-opacity="0.2"/><stop offset="100%" stop-color="#000" stop-opacity="0"/></radialGradient>
</defs>
<rect width="400" height="400" fill="url(#ska3_0)" filter="url(#fxa3_0)"/>
<rect width="400" height="400" fill="#CC3030" opacity="0.180"/>
<circle cx="38.0" cy="238.5" r="12.6" fill="#8B2020" opacity="0.66" />
<circle cx="328.4" cy="75.5" r="9.7" fill="#8B2020" opacity="0.58" />
<circle cx="202.1" cy="114.7" r="13.6" fill="#8B2020" opacity="0.68" />
<circle cx="64.2" cy="182.4" r="3.2" fill="#6B3030" opacity="0.73" />
<circle cx="185.7" cy="138.2" r="14.1" fill="#8B2020" opacity="0.73" />
<circle cx="297.4" cy="334.2" r="11.8" fill="#8B2020" opacity="0.75" />
<circle cx="357.2" cy="232.0" r="6.7" fill="#8B2020" opacity="0.64" />
<circle cx="268.9" cy="341.3" r="5.0" fill="#6B3030" opacity="0.56" />
<circle cx="69.7" cy="251.3" r="14.8" fill="#6B3030" opacity="0.74" />
<circle cx="49.6" cy="337.4" r="3.6" fill="#6B3030" opacity="0.63" />
<circle cx="194.7" cy="96.4" r="6.2" fill="#8B2020" opacity="0.83" />
<circle cx="207.3" cy="217.7" r="14.6" fill="#8B2020" opacity="0.79" />
<circle cx="356.2" cy="223.4" r="13.4" fill="#6B3030" opacity="0.87" />
<circle cx="346.2" cy="177.4" r="4.6" fill="#6B3030" opacity="0.64" />
<circle cx="71.2" cy="175.0" r="5.2" fill="#8B2020" opacity="0.63" />
<circle cx="144.7" cy="349.6" r="5.3" fill="#8B2020" opacity="0.76" />
<circle cx="183.6" cy="62.7" r="9.8" fill="#8B2020" opacity="0.81" />
<rect width="400" height="400" fill="url(#hla3_0)"/>
<rect width="400" height="400" fill="url(#sha3_0)"/>
</svg>