<svg xmlns="http://www.w3.org/2000/svg" viewBox="0 0 400 400" width="400" height="400">
<defs>
  <radialGradient id="ska4_1" cx="40%" cy="35%" r="65%"><stop offset="0%" stop-color="#D4A574"/><stop offset="55%" stop-color="#C08A5C"/><stop offset="100%" stop-color="#A57040"/></radialGradient>
  <filter id="fxa4_1"><feTurbulence type="fractalNoise" baseFrequency="0.65" numOctaves="3" result="n"/><feColorMatrix type="saturate" values="0.12" in="n" result="g"/><feBlend in="SourceGraphic" in2="g" mode="overlay"/></filter>
  <radialGradient id="hla4_1" cx="30%" cy="25%" r="45%"><stop offset="0%" stop-color="#FFF" stop-opacity="0.18"/><stop offset="100%" stop-color="#FFF" stop-opacity="0"/></radialGradient>
  <radialGradient id="sha4_1" cx="72%" cy="78%" r="50%"><stop offset="0%" stop-color="#000" stop-opacity="0.2"/><stop offset="100%" stop-color="#000" stop-opacity="0"/></radialGradient>
</defs>
<rect width="400" height="400" fill="url(#ska4_1)" filter="url(#fxa4_1)"/>
<rect width="400" height="400" fill="#CC3030" opacity="0.144"/>
<circle cx="41.0" cy="88.4" r="12.3" fill="#6B3030" opacity="0.57" />
<circle cx="313.6" cy="242.0" r="7.1" fill="#6B3030" opacity="0.84" />
<circle cx="216.4" cy="310.7" r="9.7" fill="#6B3030" opacity="0.61" />
<circle cx="155.7" cy="215.3" r="11.3" fill="#6B3030" opacity="0.73" />
<circle cx="77.4" cy="90.8" r="8.6" fill="#6B3030" opacity="0.76" />
<circle cx="337.5" cy="186.0" r="4.9" fill="#8B2020" opacity="0.84" />
<circle cx="369.1" cy="102.5" r="10.4" fill="#6B3030" opacity="0.61" />
<circle cx="337.7" cy="106.8" r="5.0" fill="#8B2020" opacity="0.69" />
<circle cx="370.0" cy="305.6" r="9.1" fill="#8B2020" opacity="0.67" />
<circle cx="268.5" cy="54.8" r="2.4" fill="#6B3030" opacity="0.70" />
<circle cx="366.2" cy="157.9" r="9.4" fill="#6B3030" opacity="0.65" />
<circle cx="315.7" cy="275.6" r="8.6" fill="#6B3030" opacity="0.74" />
<circle cx="216.9" cy="101.8" r="11.9" fill="#8B2020" opacity="0.81" />
<circle cx="227.7" cy="43.5" r="6.0" fill="#8B2020" opacity="0.58" />
<rect width="400" height="400" fill="url(#hla4_1)"/>
<rect width="400" height="400" fill="url(#sha4_1)"/>
</svg>