<svg xmlns="http://www.w3.org/2000/svg" viewBox="0 0 400 400" width="400" height="400">
<defs>
  <radialGradient id="ska5_0" cx="40%" cy="35%" r="65%"><stop offset="0%" stop-color="#E8C49A"/><stop offset="55%" stop-color="#D4A874"/><stop offset="100%" stop-color="#B88C55"/></radialGradient>
  <filter id="fxa5_0"><feTurbulence type="fractalNoise" baseFrequency="0.65" numOctaves="3" result="n"/><feColorMatrix type="saturate" values="0.12" in="n" result="g"/><feBlend in="SourceGraphic" in2="g" mode="overlay"/></filter>
  <radialGradient id="hla5_0" cx="30%" cy="25%" r="45%"><stop offset="0%" stop-color="#FFF" stop-opacity="0.18"/><stop offset="100%" stop-color="#FFF" stop-opacity="0"/></radialGradient>
  <radialGradient id="sha5_0" cx="72%" cy="78%" r="50%"><stop offset="0%" stop-color="#000" stop-opacity="0.2"/><stop offset="100%" stop-color="#000" stop-opacity="0"/></radialGradient>
</defs>
<rect width="400" height="400" fill="url(#ska5_0)" filter="url(#fxa5_0)"/>
<rect width="400" height="400" fill="#CC3030" opacity="0.180"/>
<circle cx="43.3" cy="264.2" r="2.3" fill="#6B3030" opacity="0.84" />
<circle cx="300.6" cy="105.8" r="6.2" fill="#8B2020" opacity="0.71" />
<circle cx="203.5" cy="57.8" r="12.7" fill="#8B2020" opacity="0.66" />
<circle cx="200.3" cy="284.0" r="8.4" fill="#6B3030" opacity="0.62" />
<circle cx="176.2" cy="323.6" r="13.5" fill="#6B3030" opacity="0.84" />
<circle cx="248.9" cy="310.3" r="9.7" fill="#8B2020" opacity="0.88" />
<circle cx="235.4" cy="366.7" r="5.4" fill="#8B2020" opacity="0.69" />
<circle cx="88.2" cy="95.6" r="2.7" fill="#6B3030" opacity="0.79" />
<circle cx="96.1" cy="285.5" r="5.9" fill="#8B2020" opacity="0.76" />
<circle cx="176.0" cy="89.0" r="9.0" fill="#8B2020" opacity="0.57" />
<circle cx="191.1" cy="254.0" r="13.3" fill="#8B2020" opacity="0.66" />
<circle cx="212.2" cy="229.6" r="5.7" fill="#6B3030" opacity="0.84" />
<circle cx="120.3" cy="238.9" r="8.0" fill="#6B3030" opacity="0.62" />
<circle cx="330.4" cy="275.7" r="10.6" fill="#8B2020" opacity="0.81" />
<circle cx="212.1" cy="271.7" r="7.3" fill="#6B3030" opacity="0.81" />
<circle cx="107.9" cy="335.9" r="7.5" fill="#8B2020" opacity="0.56" />
<circle cx="59.4" cy="311.1" r="6.4" fill="#6B3030" opacity="0.63" />
<circle cx="273.8" cy="71.7" r="2.8" fill="#6B3030" opacity="0.85" />
<circle cx="361.3" cy="237.1" r="3.0" fill="#8B2020" opacity="0.75" />
<rect width="400" height="400" fill="url(#hla5_0)"/>
<rect width="400" height="400" fill="url(#sha5_0)"/>
</svg>